<?xml version="1.0" encoding="UTF-8" standalone="no"?>
<svg
   xmlns:dc="http://purl.org/dc/elements/1.1/"
   xmlns:cc="http://creativecommons.org/ns#"
   xmlns:rdf="http://www.w3.org/1999/02/22-rdf-syntax-ns#"
   xmlns:svg="http://www.w3.org/2000/svg"
   xmlns="http://www.w3.org/2000/svg"
   xmlns:sodipodi="http://sodipodi.sourceforge.net/DTD/sodipodi-0.dtd"
   xmlns:inkscape="http://www.inkscape.org/namespaces/inkscape"
   id="Capa_1"
   enable-background="new 0 0 512.095 512.095"
   height="512"
   viewBox="0 0 512.095 512.095"
   width="512"
   version="1.1"
   sodipodi:docname="action-cancel.svg"
   inkscape:version="0.92.2 5c3e80d, 2017-08-06">
  <metadata
     id="metadata9074">
    <rdf:RDF>
      <cc:Work
         rdf:about="">
        <dc:format>image/svg+xml</dc:format>
        <dc:type
           rdf:resource="http://purl.org/dc/dcmitype/StillImage" />
      </cc:Work>
    </rdf:RDF>
  </metadata>
  <defs
     id="defs9072" />
  <sodipodi:namedview
     pagecolor="#ffffff"
     bordercolor="#666666"
     borderopacity="1"
     objecttolerance="10"
     gridtolerance="10"
     guidetolerance="10"
     inkscape:pageopacity="0"
     inkscape:pageshadow="2"
     inkscape:window-width="830"
     inkscape:window-height="654"
     id="namedview9070"
     showgrid="false"
     inkscape:zoom="0.4609375"
     inkscape:cx="234.30508"
     inkscape:cy="256"
     inkscape:window-x="0"
     inkscape:window-y="0"
     inkscape:window-maximized="0"
     inkscape:current-layer="Capa_1" />
  <g
     id="g9067">
    <path
       d="m256.047 448.361c-41.589 0-80.092-13.204-111.552-35.644l111.6-111.6 10-45.022-10-45.111-156.674 156.674c-22.466-31.471-35.687-69.996-35.687-111.61 0-106.212 86.102-192.313 192.313-192.313h.047l10-34.687-10-29.047c-.016 0-.031-.001-.047-.001-141.411 0-256.047 114.636-256.047 256.047s114.636 256.047 256.047 256.047c.016 0 .031-.001.047-.001l10-33.047-10-30.687c-.015.001-.031.002-.047.002z"
       fill="#ff6c6c"
       id="path9063"
       style="fill:#ff8080;fill-opacity:1" />
    <path
       d="m512.095 256.047c0-141.395-114.611-256.021-256-256.047v63.734c41.596.01 80.104 13.229 111.563 35.686l-111.563 111.564v90.133l156.622-156.622c22.441 31.46 35.644 69.964 35.644 111.552 0 106.196-86.076 192.287-192.266 192.313v63.734c141.389-.026 256-114.652 256-256.047z"
       fill="#c83c50"
       id="path9065"
       style="fill:#ff8080;fill-opacity:1" />
  </g>
</svg>
