<?xml version="1.0" encoding="UTF-8" standalone="no"?>
<!-- Created with Inkscape (http://www.inkscape.org/) by Marsupilami -->
<svg
   xmlns:svg="http://www.w3.org/2000/svg"
   xmlns="http://www.w3.org/2000/svg"
   version="1.0"
   width="2150"
   height="870"
   id="svg2">
  <defs />
  <g
     style="display:inline"
     id="layer1">
    <path
       d="M 1200.9375,515.5625 L 1105.7812,570.6875 C 1209.6618,749.60253 1403.3469,869.99999 1625,870 C 1846.6282,870 2040.3205,749.63177 2144.2188,570.75 L 2048.9688,515.59375 C 1964.136,661.68979 1805.9619,760.00001 1624.9688,760 C 1443.9641,760 1285.7756,661.67392 1200.9375,515.5625 z "
       style="fill:#009059;fill-opacity:1"
       id="path4274" />
    <path
       d="M -3.1880574e-14,317.86598 L -3.1880574e-14,191.9599 L 69.787097,191.9599 L 69.787097,205.78823 L 19.193912,205.78823 L 19.193912,246.16353 L 67.326339,246.16353 L 67.326339,260.3333 L 19.193912,260.3333 L 19.193912,317.86598 L -3.1880574e-14,317.86598 M 343.32495,317.86598 L 343.32495,204.93462 L 307.69318,204.93462 L 307.69318,191.9599 L 397.16634,191.9599 L 397.16634,204.93462 L 362.51886,204.93462 L 362.51886,317.86598 L 343.32495,317.86598 M 943.74991,317.86598 L 943.74991,191.9599 L 1016.2931,191.9599 L 1016.2931,205.78823 L 962.94382,205.78823 L 962.94382,246.16353 L 1014.7182,246.16353 L 1014.7182,260.3333 L 962.94382,260.3333 L 962.94382,304.03765 L 1016.2931,304.03765 L 1016.2931,317.86598 L 943.74991,317.86598 M 1118.07,303.35477 C 1117.8074,299.31441 1117.6106,295.38785 1117.4794,291.57508 C 1117.348,287.70546 1117.2824,283.94962 1117.2825,280.30755 L 1117.2825,191.9599 L 1135,191.9599 L 1135,317.86598 L 1109.0144,317.86598 L 1053.2044,203.39815 C 1053.7293,208.80439 1054.1231,213.44228 1054.3856,217.31184 C 1054.648,221.18159 1054.7793,224.45372 1054.7793,227.12824 L 1054.7793,317.86598 L 1037.4556,317.86598 L 1037.4556,191.9599 L 1064.7207,191.9599 L 1118.07,303.35477"
       style="font-size:187.72483826px;font-style:normal;font-weight:normal;fill:#808080;fill-opacity:1;stroke:none;stroke-width:1px;stroke-linecap:butt;stroke-linejoin:miter;stroke-opacity:1;display:inline;font-family:Zurich Cn BT"
       id="path2269" />
    <path
       d="M 107.77263,191.9599 L 107.77263,273.30803 C 107.7726,280.07997 108.05598,285.00239 108.62274,288.07532 C 109.18944,291.0914 110.12455,293.68066 111.42806,295.84309 C 113.52495,299.31441 116.16026,301.90366 119.33401,303.61085 C 122.56435,305.31806 126.44646,306.17166 130.98038,306.17165 C 135.5142,306.17166 139.39632,305.31806 142.62676,303.61085 C 145.91375,301.90366 148.57739,299.31441 150.6177,295.84309 C 151.86445,293.73755 152.74288,291.17676 153.25301,288.16068 C 153.81968,285.08774 154.10305,280.19377 154.10312,273.47875 L 154.10312,270.66186 L 154.10312,191.9599 L 170,191.9599 L 170,270.83259 C 169.99991,288.41679 166.93955,301.0216 160.81892,308.64709 C 154.75478,316.21569 144.80862,319.99998 130.98038,319.99998 C 123.6128,319.99998 117.37873,318.86184 112.27817,316.58558 C 107.23421,314.2524 102.95537,310.66729 99.441648,305.83021 C 96.834657,302.13129 94.964437,297.94865 93.830984,293.28228 C 92.697504,288.55905 92.130771,281.36036 92.130782,271.68618 L 92.130782,268.01571 L 92.130782,191.9599 L 107.77263,191.9599"
       style="font-size:187.72483826px;font-style:normal;font-weight:normal;fill:#808080;fill-opacity:1;stroke:none;stroke-width:1px;stroke-linecap:butt;stroke-linejoin:miter;stroke-opacity:1;display:inline;font-family:Zurich Cn BT"
       id="path2263" />
    <path
       d="M 225.2305,246.6757 L 237.37319,246.6757 C 246.43064,246.67576 252.99731,244.91166 257.07323,241.38337 C 261.20565,237.85524 263.27188,232.16457 263.27195,224.31136 C 263.27188,217.881 261.65853,213.07239 258.43186,209.88551 C 255.20507,206.69884 250.33667,205.10546 243.82666,205.10535 L 225.2305,205.10535 L 225.2305,246.6757 M 241.53398,191.9599 C 254.89372,191.96003 264.60221,194.37856 270.65946,199.21551 C 276.77319,204.05269 279.83009,211.73509 279.83017,222.26272 C 279.83009,230.62809 278.04689,237.34307 274.4806,242.40769 C 270.97074,247.41555 265.56456,250.94376 258.26202,252.99233 C 264.99846,253.73219 269.78194,256.09381 272.61249,260.07722 C 275.44287,264.00383 276.8581,270.43429 276.85819,279.36859 C 276.8581,281.13274 276.8298,283.43745 276.77327,286.28275 C 276.71658,289.07121 276.68828,291.03449 276.68835,292.1726 C 276.68828,296.95278 276.94302,301.47686 277.45258,305.74485 C 278.01859,309.95595 278.86773,313.99632 280,317.86598 L 262.93229,317.86598 C 261.23395,312.23222 260.3282,302.87107 260.21505,289.78252 C 260.15838,285.05929 260.07346,281.41727 259.9603,278.85644 C 259.79041,271.97076 258.57331,267.16215 256.30901,264.43058 C 254.10119,261.69912 250.33667,260.33336 245.01545,260.3333 L 225.2305,260.3333 L 225.2305,317.86598 L 208.67228,317.86598 L 208.67228,191.9599 L 241.53398,191.9599"
       style="font-size:187.72483826px;font-style:normal;font-weight:normal;fill:#808080;fill-opacity:1;stroke:none;stroke-width:1px;stroke-linecap:butt;stroke-linejoin:miter;stroke-opacity:1;display:inline;font-family:Zurich Cn BT"
       id="path2266" />
    <path
       d="M 439.21157,317.86598 L 410,191.9599 L 426.02974,191.9599 L 446.53479,287.13636 C 446.96872,289.01431 447.4027,291.43284 447.8367,294.39196 C 448.27064,297.35113 448.78596,301.50531 449.38272,306.85453 C 450.4676,300.59481 451.63389,294.44889 452.8816,288.41676 C 452.9358,288.07535 452.99005,287.81927 453.04433,287.64851 L 474.68855,191.9599 L 491.36925,191.9599 L 512.03703,286.02668 C 512.68789,289.09967 513.25747,292.37179 513.74579,295.84309 C 514.2339,299.31441 514.66787,302.98489 515.0477,306.85453 C 515.37307,304.12302 515.80704,301.19233 516.34961,298.06244 C 516.9462,294.9326 517.73277,291.23367 518.70932,286.96563 L 539.53984,191.9599 L 555,191.9599 L 524.3238,317.86598 L 505.5275,317.86598 L 487.87037,238.99329 C 486.89386,234.953 485.97167,230.14439 485.10382,224.56744 C 484.29005,218.93377 483.47636,212.44642 482.66274,205.10535 C 481.63199,215.40556 479.652,226.50236 476.72279,238.39577 L 476.56005,239.164 L 458.33334,317.86598 L 439.21157,317.86598"
       style="font-size:187.72483826px;font-style:normal;font-weight:normal;fill:#808080;fill-opacity:1;stroke:none;stroke-width:1px;stroke-linecap:butt;stroke-linejoin:miter;stroke-opacity:1;display:inline;font-family:Zurich Cn BT"
       id="path2257" />
    <path
       d="M 596.56059,272.45443 L 633.35222,272.45443 L 615.30514,211.59271 L 596.56059,272.45443 M 646.42982,317.86598 L 637.79861,287.30707 L 592.28856,287.30707 L 583.39582,317.86598 L 565,317.86598 L 605.36617,191.9599 L 625.68004,191.9599 L 665,317.86598 L 646.42982,317.86598"
       style="font-size:187.72483826px;font-style:normal;font-weight:normal;fill:#808080;fill-opacity:1;stroke:none;stroke-width:1px;stroke-linecap:butt;stroke-linejoin:miter;stroke-opacity:1;display:inline;font-family:Zurich Cn BT"
       id="path2260" />
    <path
       d="M 774.51457,303.35477 C 774.25558,299.31441 774.06141,295.38785 773.93206,291.57508 C 773.80251,287.70546 773.73779,283.94962 773.73788,280.30755 L 773.73788,191.9599 L 791.21361,191.9599 L 791.21361,317.86598 L 765.58254,317.86598 L 710.53398,203.39815 C 711.05175,208.80439 711.4401,213.44228 711.69903,217.31184 C 711.95791,221.18159 712.08736,224.45372 712.08738,227.12824 L 712.08738,317.86598 L 695,317.86598 L 695,191.9599 L 721.89321,191.9599 L 774.51457,303.35477 M 885.19417,226.27464 C 885.06464,218.87686 882.96109,213.24311 878.8835,209.37334 C 874.87048,205.50381 869.0776,203.56898 861.50486,203.56886 C 851.08409,203.56898 843.93199,206.7842 840.04853,213.21455 C 836.16501,219.64511 834.22326,233.44497 834.2233,254.61418 C 834.22326,275.15754 836.35918,288.84359 840.63105,295.67236 C 844.9676,302.44427 852.63749,305.83022 863.64077,305.83021 C 866.42388,305.83022 869.66013,305.63104 873.3495,305.23268 C 877.10349,304.83435 881.44005,304.20838 886.35922,303.35477 L 886.35922,266.13778 L 866.4563,266.13778 L 866.4563,251.62657 L 905,251.62657 L 905,314.70765 C 896.26205,316.52867 888.55979,317.86598 881.89319,318.71957 C 875.22647,319.57317 869.0776,319.99998 863.4466,319.99998 C 855.0323,319.99998 847.88021,319.11792 841.99028,317.35381 C 836.16501,315.5897 831.40773,312.9151 827.71844,309.32997 C 823.05822,304.83435 819.72489,298.43236 817.71843,290.12396 C 815.71195,281.75871 814.70871,269.2677 814.70872,252.65089 C 814.70871,239.84697 815.45306,229.88831 816.94174,222.77488 C 818.43039,215.66165 820.88994,209.7149 824.32038,204.93462 C 827.8155,200.09767 832.76695,196.4272 839.17476,193.92318 C 845.58247,191.36251 853.22001,190.0821 862.08737,190.08198 C 875.61482,190.0821 886.06788,193.21197 893.4466,199.47158 C 900.88987,205.73143 904.61156,214.55197 904.61165,225.9332 L 904.61165,226.27464 L 885.19417,226.27464"
       style="font-size:187.72483826px;font-style:normal;font-weight:normal;fill:#808080;fill-opacity:1;stroke:none;stroke-width:1px;stroke-linecap:butt;stroke-linejoin:miter;stroke-opacity:1;display:inline;font-family:Zurich Cn BT"
       id="path2272" />
    <g
       transform="matrix(1.0044248,0,0,1,-5.0221236,0)"
       style="display:inline"
       id="g4129">
      <path
         d="M 4.9999997,139.84634 L 4.9999997,12.780663 L 21.340782,12.780663 L 21.340782,67.138927 L 63.743016,67.138927 L 63.743016,12.780663 L 80,12.780663 L 80,139.84634 L 63.743016,139.84634 L 63.743016,81.783785 L 21.340782,81.783785 L 21.340782,139.84634 L 4.9999997,139.84634"
         style="font-size:195.04136658px;font-style:normal;font-weight:normal;fill:#808080;fill-opacity:1;stroke:none;stroke-width:1px;stroke-linecap:butt;stroke-linejoin:miter;stroke-opacity:1;display:inline;font-family:Zurich Cn BT"
         id="text2292" />
      <path
         d="M 371,139.84634 L 371,12.780663 L 387.34078,12.780663 L 387.34078,67.138927 L 429.74302,67.138927 L 429.74302,12.780663 L 446,12.780663 L 446,139.84634 L 429.74302,139.84634 L 429.74302,81.783785 L 387.34078,81.783785 L 387.34078,139.84634 L 371,139.84634"
         style="font-size:195.04136658px;font-style:normal;font-weight:normal;fill:#808080;fill-opacity:1;stroke:none;stroke-width:1px;stroke-linecap:butt;stroke-linejoin:miter;stroke-opacity:1;display:inline;font-family:Zurich Cn BT"
         id="path2297" />
      <path
         d="M 723,139.84634 L 723,12.780663 L 739.34078,12.780663 L 739.34078,67.138927 L 781.74302,67.138927 L 781.74302,12.780663 L 798,12.780663 L 798,139.84634 L 781.74302,139.84634 L 781.74302,81.783785 L 739.34078,81.783785 L 739.34078,139.84634 L 723,139.84634"
         style="font-size:195.04136658px;font-style:normal;font-weight:normal;fill:#808080;fill-opacity:1;stroke:none;stroke-width:1px;stroke-linecap:butt;stroke-linejoin:miter;stroke-opacity:1;display:inline;font-family:Zurich Cn BT"
         id="path2299" />
      <path
         d="M 207.92341,77.734913 C 207.92332,91.231198 207.39573,101.48259 206.34064,108.48911 C 205.28537,115.43826 203.58536,120.95162 201.2406,125.02919 C 197.95774,130.54255 193.35599,134.76372 187.43533,137.69268 C 181.57315,140.56422 174.65587,141.99999 166.68345,142 C 160.17646,141.99999 154.28504,141.02366 149.00918,139.07102 C 143.79187,137.06095 139.48323,134.18941 136.08322,130.4564 C 132.15559,126.20653 129.4004,120.49217 127.81765,113.3133 C 126.23487,106.07705 125.44348,93.758153 125.44349,76.356573 C 125.44348,61.596932 125.94176,50.79995 126.93833,43.965594 C 127.93488,37.13143 129.63488,31.675509 132.03836,27.597813 C 135.20389,22.142003 139.71771,18.006989 145.57985,15.192757 C 151.50054,12.321344 158.53507,10.885575 166.68345,10.885446 C 173.19034,10.885575 179.05244,11.861898 184.26979,13.814417 C 189.54562,15.767189 193.88358,18.610012 197.28368,22.342893 C 201.15258,26.707749 203.87846,32.565685 205.46132,39.916722 C 207.10262,47.210528 207.92332,59.816578 207.92341,77.734913 M 190.42501,76.356573 C 190.42493,54.877533 188.6663,40.979291 185.14911,34.661802 C 181.69039,28.344525 175.47656,25.185834 166.50759,25.185719 C 162.57992,25.185834 159.09197,25.903717 156.04372,27.339374 C 153.05401,28.717824 150.65054,30.756616 148.83331,33.455756 C 146.66431,36.671984 145.11084,40.92186 144.17294,46.205396 C 143.2936,51.431688 142.85393,61.48207 142.85396,76.356573 C 142.85393,89.048833 143.11773,97.9506 143.64535,103.0619 C 144.23153,108.17327 145.16946,112.19343 146.45916,115.12237 C 148.39362,119.37228 151.00227,122.53096 154.28509,124.59846 C 157.56782,126.66598 161.64198,127.69973 166.50759,127.69972 C 175.47656,127.69973 181.69039,124.51233 185.14911,118.13749 C 188.6663,111.7627 190.42493,97.835739 190.42501,76.356573"
         style="font-size:195.04136658px;font-style:normal;font-weight:normal;fill:#808080;fill-opacity:1;stroke:none;stroke-width:1px;stroke-linecap:butt;stroke-linejoin:miter;stroke-opacity:1;display:inline;font-family:Zurich Cn BT"
         id="text2302" />
      <path
         d="M 329.99999,100.6498 L 329.99999,103.49263 C 329.9999,115.55312 326.54301,124.97177 319.62932,131.7486 C 312.71547,138.468 303.09224,141.82769 290.75962,141.8277 C 284.90466,141.82769 279.42346,141.05238 274.31603,139.50175 C 269.27081,137.95112 265.19105,135.82618 262.07677,133.12694 C 256.8447,128.70477 253.13867,122.32996 250.95866,114.00247 C 248.84092,105.67504 247.78205,92.178811 247.78206,73.513747 C 247.78205,60.477033 248.43605,50.455366 249.74409,43.448717 C 251.11436,36.442262 253.38782,30.584324 256.56443,25.874888 C 259.67872,21.16568 264.16334,17.547542 270.01828,15.020465 C 275.93543,12.493636 282.78692,11.230159 290.57276,11.230031 C 303.09224,11.230159 312.62203,14.474997 319.16217,20.964554 C 325.76444,27.396917 329.0656,36.786845 329.0657,49.134368 L 309.72579,49.134368 L 309.72579,47.239151 C 309.72573,39.658384 308.07514,34.001454 304.77404,30.268345 C 301.53508,26.535456 296.61447,24.668956 290.01218,24.668842 C 285.83895,24.668956 282.16406,25.415556 278.9875,26.908643 C 275.87315,28.401956 273.35056,30.584324 271.41972,33.455756 C 269.48881,36.3274 268.11851,40.692137 267.30882,46.549981 C 266.49907,52.350581 266.09421,63.406001 266.09424,79.716276 C 266.09421,98.955635 267.83823,111.84884 271.32629,118.39592 C 274.87657,124.94305 281.10519,128.21661 290.01218,128.2166 C 297.11276,128.21661 302.34481,126.09167 305.70833,121.84178 C 309.134,117.53449 310.84688,110.95867 310.84695,102.11429 L 310.84695,100.6498 L 329.99999,100.6498"
         style="font-size:195.04136658px;font-style:normal;font-weight:normal;fill:#808080;fill-opacity:1;stroke:none;stroke-width:1px;stroke-linecap:butt;stroke-linejoin:miter;stroke-opacity:1;display:inline;font-family:Zurich Cn BT"
         id="text2310" />
      <path
         d="M 681.99999,100.6498 L 681.99999,103.49263 C 681.9999,115.55312 678.54301,124.97177 671.62932,131.7486 C 664.71547,138.468 655.09224,141.82769 642.75962,141.8277 C 636.90466,141.82769 631.42346,141.05238 626.31603,139.50175 C 621.27081,137.95112 617.19105,135.82618 614.07677,133.12694 C 608.8447,128.70477 605.13867,122.32996 602.95866,114.00247 C 600.84092,105.67504 599.78205,92.178811 599.78206,73.513747 C 599.78205,60.477033 600.43605,50.455366 601.74409,43.448717 C 603.11436,36.442262 605.38782,30.584324 608.56443,25.874888 C 611.67872,21.16568 616.16334,17.547542 622.01828,15.020465 C 627.93543,12.493636 634.78692,11.230159 642.57276,11.230031 C 655.09224,11.230159 664.62203,14.474997 671.16217,20.964554 C 677.76444,27.396917 681.0656,36.786845 681.0657,49.134368 L 661.72579,49.134368 L 661.72579,47.239151 C 661.72573,39.658384 660.07514,34.001454 656.77404,30.268345 C 653.53508,26.535456 648.61447,24.668956 642.01218,24.668842 C 637.83895,24.668956 634.16406,25.415556 630.9875,26.908643 C 627.87315,28.401956 625.35056,30.584324 623.41972,33.455756 C 621.48881,36.3274 620.11851,40.692137 619.30882,46.549981 C 618.49907,52.350581 618.09421,63.406001 618.09424,79.716276 C 618.09421,98.955635 619.83823,111.84884 623.32629,118.39592 C 626.87657,124.94305 633.10519,128.21661 642.01218,128.2166 C 649.11276,128.21661 654.34481,126.09167 657.70833,121.84178 C 661.134,117.53449 662.84688,110.95867 662.84695,102.11429 L 662.84695,100.6498 L 681.99999,100.6498"
         style="font-size:195.04136658px;font-style:normal;font-weight:normal;fill:#808080;fill-opacity:1;stroke:none;stroke-width:1px;stroke-linecap:butt;stroke-linejoin:miter;stroke-opacity:1;display:inline;font-family:Zurich Cn BT"
         id="path2315" />
      <path
         d="M 490.17046,103.14805 L 508.32386,103.14805 L 508.32386,105.474 C 508.32384,113.57177 509.80112,119.48714 512.75568,123.22012 C 515.76701,126.8957 520.51132,128.73348 526.98863,128.73348 C 533.12495,128.73348 538.18176,126.8957 542.15909,123.22012 C 546.13631,119.54457 548.12493,114.92138 548.125,109.35057 C 548.12493,102.0569 540.34084,93.499719 524.77273,83.679001 C 522.55678,82.243288 520.85223,81.152104 519.6591,80.405445 C 507.49998,72.537491 499.77271,66.162677 496.47726,61.280984 C 493.1818,56.342018 491.53408,50.311789 491.53409,43.190279 C 491.53408,33.542008 494.94318,25.731425 501.76137,19.758507 C 508.63633,13.728398 517.6136,10.713282 528.69318,10.713154 C 540.05676,10.713282 548.74994,13.584821 554.77272,19.327776 C 560.79538,25.013541 563.80673,33.254855 563.80682,44.05174 L 563.80682,47.239151 L 546.50568,47.239151 L 546.50568,44.568618 C 546.50561,37.791884 544.94313,32.651831 541.81818,29.148445 C 538.74994,25.645279 534.14767,23.893641 528.01136,23.893525 C 522.38632,23.893641 517.72725,25.559133 514.03409,28.890006 C 510.34088,32.16367 508.4943,36.269969 508.49432,41.208916 C 508.4943,49.364181 516.84655,58.840256 533.55113,69.637168 C 536.61926,71.589884 538.97721,73.111799 540.62501,74.202917 C 550.56812,80.750089 557.1022,86.292157 560.22727,90.829138 C 563.40901,95.366215 564.99992,100.70728 565,106.85234 C 564.99992,118.05137 561.64765,126.72341 554.94318,132.86849 C 548.29539,138.95616 538.86358,141.99999 526.64773,142 C 514.48861,141.99999 505.34088,139.07102 499.20455,133.21308 C 493.06818,127.35515 489.99999,118.62567 490,107.02463 C 489.99999,106.62264 490.02841,105.9909 490.08523,105.12941 C 490.14204,104.26799 490.17045,103.60753 490.17046,103.14805"
         style="font-size:195.04136658px;font-style:normal;font-weight:normal;fill:#808080;fill-opacity:1;stroke:none;stroke-width:1px;stroke-linecap:butt;stroke-linejoin:miter;stroke-opacity:1;display:inline;font-family:Zurich Cn BT"
         id="text2322" />
      <path
         d="M 975,139.84634 L 975,12.780663 L 990.25145,12.780663 L 990.25145,125.20148 L 1030,125.20148 L 1030,139.84634 L 975,139.84634"
         style="font-size:195.04136658px;font-style:normal;font-weight:normal;fill:#808080;fill-opacity:1;stroke:none;stroke-width:1px;stroke-linecap:butt;stroke-linejoin:miter;stroke-opacity:1;display:inline;font-family:Zurich Cn BT"
         id="text2334" />
      <path
         d="M 1065,139.84634 L 1065,12.780663 L 1134.9999,12.780663 L 1134.9999,26.736351 L 1083.521,26.736351 L 1083.521,67.483513 L 1133.4803,67.483513 L 1133.4803,81.783785 L 1083.521,81.783785 L 1083.521,125.89065 L 1134.9999,125.89065 L 1134.9999,139.84634 L 1065,139.84634"
         style="font-size:195.04136658px;font-style:normal;font-weight:normal;fill:#808080;fill-opacity:1;stroke:none;stroke-width:1px;stroke-linecap:butt;stroke-linejoin:miter;stroke-opacity:1;display:inline;font-family:Zurich Cn BT"
         id="text2340" />
      <path
         d="M 866.06987,12.780663 L 866.06987,94.878013 C 866.06984,101.71231 866.36096,106.68007 866.94323,109.78131 C 867.52545,112.82517 868.48614,115.43826 869.82533,117.62061 C 871.97959,121.12391 874.68701,123.73701 877.94759,125.45992 C 881.26633,127.18285 885.25468,128.04432 889.91267,128.04431 C 894.57054,128.04432 898.55889,127.18285 901.87773,125.45992 C 905.25467,123.73701 907.9912,121.12391 910.08733,117.62061 C 911.36819,115.49569 912.27067,112.91132 912.79476,109.86745 C 913.37693,106.76622 913.66804,101.82717 913.66812,95.050305 L 913.66812,92.207477 L 913.66812,12.780663 L 930,12.780663 L 930,92.379769 C 929.99991,110.12592 926.85581,122.84683 920.56769,130.54254 C 914.33763,138.18084 904.1193,141.99999 889.91267,142 C 882.34347,141.99999 875.93883,140.85137 870.6987,138.55414 C 865.51671,136.19949 861.12079,132.58135 857.51093,127.69972 C 854.83259,123.96673 852.9112,119.74557 851.74673,115.03623 C 850.58223,110.2695 849.99999,103.00451 850,93.241231 L 850,89.536944 L 850,12.780663 L 866.06987,12.780663"
         style="font-size:195.04136658px;font-style:normal;font-weight:normal;fill:#808080;fill-opacity:1;stroke:none;stroke-width:1px;stroke-linecap:butt;stroke-linejoin:miter;stroke-opacity:1;display:inline;font-family:Zurich Cn BT"
         id="text2328" />
    </g>
    <path
       d="M 223.33191,371.06299 L 223.33191,452.98096 C 223.33187,459.80033 223.6656,464.75724 224.33308,467.85169 C 225.00051,470.8889 226.1018,473.49629 227.63698,475.67387 C 230.10651,479.16951 233.21017,481.77691 236.94794,483.49604 C 240.75239,485.21522 245.32443,486.0748 250.6641,486.07479 C 256.00367,486.0748 260.57572,485.21522 264.38027,483.49604 C 268.25142,481.77691 271.38844,479.16951 273.79136,475.67387 C 275.25967,473.5536 276.29422,470.97486 276.89501,467.93765 C 277.56238,464.84319 277.89611,459.91494 277.8962,453.15287 L 277.8962,450.31626 L 277.8962,371.06299 L 296.61826,371.06299 L 296.61826,450.48817 C 296.61815,468.19556 293.01391,480.88867 285.80551,488.56757 C 278.66368,496.18918 266.94988,499.99998 250.6641,499.99998 C 241.98717,499.99998 234.6452,498.85387 228.63815,496.56166 C 222.69779,494.21215 217.65852,490.60191 213.52035,485.73096 C 210.45004,482.00612 208.24745,477.79418 206.91256,473.09512 C 205.57764,468.33882 204.91019,461.0897 204.9102,451.34775 L 204.9102,447.65156 L 204.9102,371.06299 L 223.33191,371.06299 M 405.84695,483.23817 C 405.57988,479.16951 405.37963,475.21545 405.24624,471.37597 C 405.11265,467.47924 405.04591,463.69709 405.04601,460.02952 L 405.04601,371.06299 L 423.06724,371.06299 L 423.06724,497.85103 L 396.63609,497.85103 L 339.86921,382.58136 C 340.40315,388.02548 340.80361,392.69586 341.07062,396.59251 C 341.33758,400.48937 341.47107,403.78443 341.4711,406.47768 L 341.4711,497.85103 L 323.85034,497.85103 L 323.85034,371.06299 L 351.58301,371.06299 L 405.84695,483.23817 M 450.1992,497.85103 L 450.1992,371.06299 L 470.12268,371.06299 L 470.12268,497.85103 L 450.1992,497.85103 M 525.18756,497.85103 L 483.33825,371.06299 L 505.46432,371.06299 L 531.89546,465.61679 C 532.0289,466.01795 532.19576,466.59101 532.39605,467.33594 C 534.59859,475.30141 536.10037,481.1752 536.90136,484.95733 C 537.43527,482.83705 538.13609,479.94313 539.00383,476.27557 C 540.33869,471.00351 541.27312,467.50789 541.80714,465.7887 L 569.84017,371.06299 L 590.36435,371.06299 L 548.51504,497.85103 L 525.18756,497.85103 M 603.78016,497.85103 L 603.78016,371.06299 L 677.5671,371.06299 L 677.5671,384.98819 L 623.30316,384.98819 L 623.30316,425.64632 L 675.96522,425.64632 L 675.96522,439.91534 L 623.30316,439.91534 L 623.30316,483.92584 L 677.5671,483.92584 L 677.5671,497.85103 L 603.78016,497.85103 M 718.21498,426.16206 L 732.53184,426.16206 C 743.21103,426.16213 750.95348,424.38567 755.75921,420.83267 C 760.63154,417.27981 763.06775,411.54929 763.06782,403.64107 C 763.06775,397.16567 761.1655,392.32337 757.3611,389.11416 C 753.55655,385.90518 747.81645,384.30064 740.14081,384.30052 L 718.21498,384.30052 L 718.21498,426.16206 M 737.43762,371.06299 C 753.18944,371.06311 764.63625,373.49859 771.77808,378.36942 C 778.98648,383.24048 782.59073,390.9767 782.59082,401.57807 C 782.59073,410.00205 780.48824,416.76407 776.28339,421.86416 C 772.14509,426.9071 765.77093,430.46003 757.16085,432.52295 C 765.10347,433.26799 770.74344,435.64616 774.08079,439.65747 C 777.41797,443.61159 779.0866,450.08709 779.08669,459.08397 C 779.0866,460.86048 779.05323,463.18134 778.98657,466.04657 C 778.91973,468.85457 778.88636,470.83159 778.88645,471.97768 C 778.88636,476.79134 779.18672,481.34711 779.78752,485.64499 C 780.45487,489.8856 781.45605,493.95428 782.79106,497.85103 L 762.66734,497.85103 C 760.66491,492.17781 759.59699,482.75109 759.46357,469.57085 C 759.39675,464.81454 759.29663,461.147 759.16322,458.56823 C 758.96291,451.63433 757.52788,446.79203 754.85815,444.04133 C 752.25501,441.29073 747.81645,439.9154 741.54245,439.91534 L 718.21498,439.91534 L 718.21498,497.85103 L 698.69197,497.85103 L 698.69197,371.06299 L 737.43762,371.06299 M 804.7169,461.23293 L 826.04203,461.23293 L 826.04203,463.55379 C 826.04199,471.63387 827.77737,477.53631 831.24816,481.26114 C 834.78562,484.92869 840.35885,486.76246 847.96786,486.76245 C 855.17629,486.76246 861.11662,484.92869 865.78886,481.26114 C 870.46095,477.59362 872.79703,472.98054 872.79711,467.4219 C 872.79703,460.14416 863.65294,451.60568 845.36479,441.80642 C 842.76168,440.37384 840.75932,439.28504 839.35771,438.54001 C 825.07419,430.68925 815.99684,424.32837 812.12563,419.45734 C 808.25439,414.52917 806.31878,408.51211 806.31879,401.40616 C 806.31878,391.77897 810.32349,383.98545 818.33294,378.02559 C 826.4091,372.00866 836.95484,369.00013 849.97022,369 C 863.31921,369.00013 873.53123,371.86539 880.60632,377.5958 C 887.68122,383.26913 891.21872,391.49244 891.21882,402.26574 L 891.21882,405.44619 L 870.89487,405.44619 L 870.89487,402.78149 C 870.8948,396.01956 869.0593,390.89074 865.38838,387.39501 C 861.78408,383.89949 856.37771,382.15169 849.16927,382.15157 C 842.56144,382.15169 837.08834,383.81354 832.74993,387.13714 C 828.41145,390.40365 826.24223,394.50097 826.24226,399.42913 C 826.24223,407.56658 836.05378,417.02194 855.67694,427.79527 C 859.28113,429.74372 862.05105,431.26231 863.98673,432.35104 C 875.66708,438.88391 883.34278,444.41386 887.01387,448.94093 C 890.75151,453.4681 892.62038,458.79749 892.62046,464.92912 C 892.62038,476.10368 888.6824,484.75678 880.80655,490.88844 C 872.99727,496.9628 861.91756,499.99998 847.56738,499.99998 C 833.28385,499.99998 822.53787,497.07741 815.32941,491.23226 C 808.1209,485.38713 804.51666,476.67673 804.51666,465.10104 C 804.51666,464.69993 804.55003,464.06957 804.61678,463.20996 C 804.68352,462.35042 804.71689,461.6914 804.7169,461.23293 M 918.35075,497.85103 L 918.35075,371.06299 L 938.27422,371.06299 L 938.27422,497.85103 L 918.35075,497.85103 M 990.23548,497.85103 L 990.23548,384.1286 L 953.99277,384.1286 L 953.99277,371.06299 L 1045,371.06299 L 1045,384.1286 L 1009.7585,384.1286 L 1009.7585,497.85103 L 990.23548,497.85103"
       style="font-size:189.3605957px;font-style:normal;font-weight:normal;fill:#808080;fill-opacity:1;stroke:none;stroke-width:1px;stroke-linecap:butt;stroke-linejoin:miter;stroke-opacity:1;display:inline;font-family:Zurich Cn BT"
       id="text2286" />
    <path
       d="M 1091.1156,497.85103 L 1091.1156,444.72899 L 1060,371.06299 L 1077.9296,371.06299 L 1100.5226,430.80379 L 1124.1608,371.06299 L 1139.9999,371.06299 L 1107.0351,446.27623 L 1107.0351,497.85103 L 1091.1156,497.85103"
       style="font-size:189.3605957px;font-style:normal;font-weight:normal;fill:#808080;fill-opacity:1;stroke:none;stroke-width:1px;stroke-linecap:butt;stroke-linejoin:miter;stroke-opacity:1;display:inline;font-family:Zurich Cn BT"
       id="text2275" />
    <path
       d="M 1708.5715 249.46428 A 99.285713 99.285713 0 1 1  1510.0001,249.46428 A 99.285713 99.285713 0 1 1  1708.5715 249.46428 z"
       transform="matrix(1.1582729,0,0,1.1582734,-238.99204,-18.947838)"
       style="fill:#009059;fill-opacity:1;display:inline"
       id="path4206" />
    <path
       d="M 1700.7812,0.59375 L 1671,106.5 C 1742.4616,126.57467 1794.9062,192.2438 1794.9062,270.09375 C 1794.9062,363.88448 1718.7907,439.99999 1625,440 C 1609.8936,440 1595.2576,438.01747 1581.3125,434.3125 L 1553.0312,540.625 C 1575.9993,546.72569 1600.1201,550 1625,550 C 1779.5107,550 1904.9062,424.6045 1904.9062,270.09375 C 1904.9062,141.84507 1818.506,33.66654 1700.7812,0.59375 z "
       style="fill:#009059;fill-opacity:1;stroke:none;stroke-opacity:1;display:inline"
       id="path4387" />
    <path
       d="M 2050.2188,156.8125 L 1943.6562,185.1875 C 1950.8763,212.30757 1954.7188,240.80457 1954.7188,270.1875 C 1954.7188,452.24898 1806.9678,600 1624.9062,600 C 1533.1683,599.99999 1450.1457,562.48344 1390.3438,501.96875 L 1312.0938,579.28125 C 1391.8671,659.98243 1502.6168,710.00001 1624.9688,710 C 1867.8308,710 2064.9376,512.89329 2064.9375,270.03125 C 2064.9375,230.88802 2059.8257,192.94484 2050.2188,156.8125 z "
       style="fill:#009059;fill-opacity:1;display:inline"
       id="path2332" />
  </g>
</svg>
