<?xml version="1.0" encoding="UTF-8" standalone="no"?>
<svg
   xmlns:dc="http://purl.org/dc/elements/1.1/"
   xmlns:cc="http://creativecommons.org/ns#"
   xmlns:rdf="http://www.w3.org/1999/02/22-rdf-syntax-ns#"
   xmlns:svg="http://www.w3.org/2000/svg"
   xmlns="http://www.w3.org/2000/svg"
   xmlns:sodipodi="http://sodipodi.sourceforge.net/DTD/sodipodi-0.dtd"
   xmlns:inkscape="http://www.inkscape.org/namespaces/inkscape"
   height="311pt"
   viewBox="0 0 311 311.07733"
   width="311pt"
   version="1.1"
   id="svg1211"
   sodipodi:docname="close.svg"
   inkscape:version="0.92.2 5c3e80d, 2017-08-06">
  <metadata
     id="metadata1217">
    <rdf:RDF>
      <cc:Work
         rdf:about="">
        <dc:format>image/svg+xml</dc:format>
        <dc:type
           rdf:resource="http://purl.org/dc/dcmitype/StillImage" />
      </cc:Work>
    </rdf:RDF>
  </metadata>
  <defs
     id="defs1215" />
  <sodipodi:namedview
     pagecolor="#ffffff"
     bordercolor="#666666"
     borderopacity="1"
     objecttolerance="10"
     gridtolerance="10"
     guidetolerance="10"
     inkscape:pageopacity="0"
     inkscape:pageshadow="2"
     inkscape:window-width="1440"
     inkscape:window-height="739"
     id="namedview1213"
     showgrid="false"
     inkscape:zoom="0.56913183"
     inkscape:cx="207.33333"
     inkscape:cy="207.33333"
     inkscape:window-x="0"
     inkscape:window-y="0"
     inkscape:window-maximized="0"
     inkscape:current-layer="svg1211" />
  <path
     d="m16.035156 311.078125c-4.097656 0-8.195312-1.558594-11.308594-4.695313-6.25-6.25-6.25-16.382812 0-22.632812l279.0625-279.0625c6.25-6.25 16.382813-6.25 22.632813 0s6.25 16.382812 0 22.636719l-279.058594 279.058593c-3.136719 3.117188-7.234375 4.695313-11.328125 4.695313zm0 0"
     id="path1207"
     style="fill:#959595;fill-opacity:1" />
  <path
     d="m295.117188 311.078125c-4.097657 0-8.191407-1.558594-11.308594-4.695313l-279.082032-279.058593c-6.25-6.253907-6.25-16.386719 0-22.636719s16.382813-6.25 22.636719 0l279.058594 279.0625c6.25 6.25 6.25 16.382812 0 22.632812-3.136719 3.117188-7.230469 4.695313-11.304687 4.695313zm0 0"
     id="path1209"
     style="fill:#959595;fill-opacity:1" />
</svg>
