<?xml version="1.0" encoding="UTF-8" standalone="no"?>
<!-- Generator: Adobe Illustrator 19.0.0, SVG Export Plug-In . SVG Version: 6.00 Build 0)  -->

<svg
   xmlns:dc="http://purl.org/dc/elements/1.1/"
   xmlns:cc="http://creativecommons.org/ns#"
   xmlns:rdf="http://www.w3.org/1999/02/22-rdf-syntax-ns#"
   xmlns:svg="http://www.w3.org/2000/svg"
   xmlns="http://www.w3.org/2000/svg"
   xmlns:sodipodi="http://sodipodi.sourceforge.net/DTD/sodipodi-0.dtd"
   xmlns:inkscape="http://www.inkscape.org/namespaces/inkscape"
   version="1.1"
   id="Capa_1"
   x="0px"
   y="0px"
   viewBox="0 0 512 512"
   style="enable-background:new 0 0 512 512;"
   xml:space="preserve"
   sodipodi:docname="nav-arrow-left.svg"
   inkscape:version="0.92.2 5c3e80d, 2017-08-06"><metadata
     id="metadata4606"><rdf:RDF><cc:Work
         rdf:about=""><dc:format>image/svg+xml</dc:format><dc:type
           rdf:resource="http://purl.org/dc/dcmitype/StillImage" /></cc:Work></rdf:RDF></metadata><defs
     id="defs4604" /><sodipodi:namedview
     pagecolor="#ffffff"
     bordercolor="#666666"
     borderopacity="1"
     objecttolerance="10"
     gridtolerance="10"
     guidetolerance="10"
     inkscape:pageopacity="0"
     inkscape:pageshadow="2"
     inkscape:window-width="848"
     inkscape:window-height="604"
     id="namedview4602"
     showgrid="false"
     inkscape:zoom="0.4609375"
     inkscape:cx="256"
     inkscape:cy="256"
     inkscape:window-x="0"
     inkscape:window-y="0"
     inkscape:window-maximized="0"
     inkscape:current-layer="Capa_1" /><g
     id="g4569"
     style="fill:#959595;fill-opacity:1"><g
       id="g4567"
       style="fill:#959595;fill-opacity:1"><path
         d="M492,236H68.442l70.164-69.824c7.829-7.792,7.859-20.455,0.067-28.284c-7.792-7.83-20.456-7.859-28.285-0.068    l-104.504,104c-0.007,0.006-0.012,0.013-0.018,0.019c-7.809,7.792-7.834,20.496-0.002,28.314c0.007,0.006,0.012,0.013,0.018,0.019    l104.504,104c7.828,7.79,20.492,7.763,28.285-0.068c7.792-7.829,7.762-20.492-0.067-28.284L68.442,276H492    c11.046,0,20-8.954,20-20C512,244.954,503.046,236,492,236z"
         id="path4565"
         style="fill:#959595;fill-opacity:1" /></g></g><g
     id="g4571" /><g
     id="g4573" /><g
     id="g4575" /><g
     id="g4577" /><g
     id="g4579" /><g
     id="g4581" /><g
     id="g4583" /><g
     id="g4585" /><g
     id="g4587" /><g
     id="g4589" /><g
     id="g4591" /><g
     id="g4593" /><g
     id="g4595" /><g
     id="g4597" /><g
     id="g4599" /></svg>