<?xml version="1.0" encoding="UTF-8" standalone="no"?>
<!-- Generator: Adobe Illustrator 19.0.0, SVG Export Plug-In . SVG Version: 6.00 Build 0)  -->

<svg
   xmlns:dc="http://purl.org/dc/elements/1.1/"
   xmlns:cc="http://creativecommons.org/ns#"
   xmlns:rdf="http://www.w3.org/1999/02/22-rdf-syntax-ns#"
   xmlns:svg="http://www.w3.org/2000/svg"
   xmlns="http://www.w3.org/2000/svg"
   xmlns:sodipodi="http://sodipodi.sourceforge.net/DTD/sodipodi-0.dtd"
   xmlns:inkscape="http://www.inkscape.org/namespaces/inkscape"
   version="1.1"
   id="Capa_1"
   x="0px"
   y="0px"
   viewBox="0 0 512 512"
   style="enable-background:new 0 0 512 512;"
   xml:space="preserve"
   sodipodi:docname="search.svg"
   inkscape:version="0.92.2 5c3e80d, 2017-08-06"><metadata
     id="metadata3901"><rdf:RDF><cc:Work
         rdf:about=""><dc:format>image/svg+xml</dc:format><dc:type
           rdf:resource="http://purl.org/dc/dcmitype/StillImage" /></cc:Work></rdf:RDF></metadata><defs
     id="defs3899" /><sodipodi:namedview
     pagecolor="#ffffff"
     bordercolor="#666666"
     borderopacity="1"
     objecttolerance="10"
     gridtolerance="10"
     guidetolerance="10"
     inkscape:pageopacity="0"
     inkscape:pageshadow="2"
     inkscape:window-width="937"
     inkscape:window-height="720"
     id="namedview3897"
     showgrid="false"
     inkscape:zoom="0.4609375"
     inkscape:cx="256"
     inkscape:cy="256"
     inkscape:window-x="0"
     inkscape:window-y="0"
     inkscape:window-maximized="0"
     inkscape:current-layer="Capa_1" /><g
     id="g3864"
     style="fill:#959595;fill-opacity:1"><g
       id="g3862"
       style="fill:#959595;fill-opacity:1"><path
         d="M447.615,64.386C406.095,22.866,350.892,0,292.175,0s-113.92,22.866-155.439,64.386    C95.217,105.905,72.35,161.108,72.35,219.824c0,53.683,19.124,104.421,54.132,144.458L4.399,486.366    c-5.864,5.864-5.864,15.371,0,21.236C7.331,510.533,11.174,512,15.016,512s7.686-1.466,10.617-4.399l122.084-122.083    c40.037,35.007,90.775,54.132,144.458,54.132c58.718,0,113.919-22.866,155.439-64.386c41.519-41.519,64.385-96.722,64.385-155.439    S489.134,105.905,447.615,64.386z M426.379,354.029c-74.001,74-194.406,74-268.407,0c-74-74-74-194.407,0-268.407    c37.004-37.004,85.596-55.5,134.204-55.5c48.596,0,97.208,18.505,134.204,55.5C500.378,159.621,500.378,280.028,426.379,354.029z"
         id="path3860"
         style="fill:#959595;fill-opacity:1" /></g></g><g
     id="g3866" /><g
     id="g3868" /><g
     id="g3870" /><g
     id="g3872" /><g
     id="g3874" /><g
     id="g3876" /><g
     id="g3878" /><g
     id="g3880" /><g
     id="g3882" /><g
     id="g3884" /><g
     id="g3886" /><g
     id="g3888" /><g
     id="g3890" /><g
     id="g3892" /><g
     id="g3894" /></svg>